<svg width="1000" height="1000" viewBox="0 0 1000 1000" xmlns="http://www.w3.org/2000/svg"><defs/><path fill="#aa36a5" transform="matrix(1.5177663709027627 0 0 1.5177663709027625 -515.1371580994833 -55.60810823495672)" d="M 472.43421763118 457.86190109694 C 472.43421763118 457.86190109694 472.53421763118 457.86190109694 472.43421763118 457.86190109694 C 472.53421763118 457.86190109694 472.43421763118 457.86190109694 472.43421763118 457.86190109694 Z"/><path fill="#aa36a5" transform="matrix(1.5177663709027627 0 0 1.5177663709027625 -515.1371580994833 -55.60810823495672)" d="M 471.43421763118 459.16190109694 C 471.63421763118 458.86190109694 472.23421763118 458.16190109694 472.43421763118 457.96190109694 C 472.33421763118 458.06190109694 472.03421763118 458.46190109694 471.43421763118 459.16190109694 Z"/><path fill="#aa36a5" transform="matrix(1.5177663709027627 0 0 1.5177663709027625 -515.1371580994833 -55.60810823495672)" d="M 471.43421763118 459.16190109694 C 471.43421763118 459.16190109694 471.43421763118 459.16190109694 471.43421763118 459.16190109694 C 471.43421763118 459.16190109694 471.43421763118 459.16190109694 471.43421763118 459.16190109694 Z"/><path fill="#aa36a5" transform="matrix(1.5177663709027627 0 0 1.5177663709027625 -515.1371580994833 -55.60810823495672)" d="M 471.33421763118 459.26190109694 C 471.33421763118 459.26190109694 471.43421763118 459.16190109694 471.33421763118 459.26190109694 C 471.43421763118 459.16190109694 471.43421763118 459.16190109694 471.33421763118 459.26190109694 Z"/><path fill="#aa36a5" transform="matrix(1.5177663709027627 0 0 1.5177663709027625 -515.1371580994833 -55.60810823495672)" d="M 472.53421763118 457.76190109694 C 472.53421763118 457.76190109694 472.53421763118 457.76190109694 472.53421763118 457.76190109694 L 472.53421763118 457.76190109694 Z"/><path fill="#aa36a5" transform="matrix(1.5177663709027627 0 0 1.5177663709027625 -515.1371580994833 -55.60810823495672)" d="M 853.43421763118 428.46190109694 C 853.03421763118 428.66190109694 852.63421763118 428.96190109694 852.23421763118 429.16190109694 C 850.63421763118 430.06190109694 848.93421763118 431.06190109694 847.23421763118 431.96190109694 C 843.93421763118 433.76190109694 840.53421763118 435.36190109694 837.03421763118 436.86190109694 C 822.93421763118 442.96190109694 807.93421763118 446.86190109694 792.63421763118 449.06190109694 C 777.23421763118 451.26190109694 761.63421763118 451.76190109694 746.13421763118 451.16190109694 C 730.53421763118 450.56190109694 715.03421763118 448.96190109694 699.73421763118 446.56190109694 C 687.03421763118 444.66190109694 674.43421763118 442.26190109694 661.83421763118 439.46190109694 C 651.83421763118 437.26190109694 641.73421763118 435.06190109694 631.73421763118 432.96190109694 C 619.03421763118 430.36190109694 606.13421763118 427.86190109694 593.23421763118 426.26190109694 C 579.43421763118 424.46190109694 565.43421763118 423.46190109694 551.53421763118 424.06190109694 C 536.23421763118 424.66190109694 520.93421763118 427.36190109694 506.73421763118 433.36190109694 C 493.23421763118 439.06190109694 480.53421763118 447.66190109694 471.33421763118 459.26190109694 C 471.13421763118 459.56190109694 471.73421763118 459.26190109694 471.73421763118 459.36190109694 C 472.03421763118 459.26190109694 472.23421763118 459.06190109694 472.53421763118 458.96190109694 C 473.03421763118 458.66190109694 473.53421763118 458.46190109694 473.93421763118 458.16190109694 C 474.93421763118 457.66190109694 476.03421763118 457.06190109694 477.03421763118 456.56190109694 C 479.03421763118 455.56190109694 481.03421763118 454.66190109694 483.03421763118 453.76190109694 C 497.33421763118 447.56190109694 512.53421763118 443.96190109694 528.13421763118 442.96190109694 C 543.63421763118 441.96190109694 559.33421763118 443.26190109694 574.73421763118 445.16190109694 C 586.23421763118 446.66190109694 597.63421763118 448.26190109694 609.03421763118 450.26190109694 C 620.23421763118 452.26190109694 631.43421763118 454.56190109694 642.53421763118 456.76190109694 C 647.53421763118 457.76190109694 652.43421763118 458.86190109694 657.43421763118 459.76190109694 C 671.03421763118 462.36190109694 684.73421763118 464.46190109694 698.63421763118 465.86190109694 C 714.13421763118 467.36190109694 729.73421763118 467.96190109694 745.23421763118 467.36190109694 C 760.83421763118 466.66190109694 776.33421763118 464.76190109694 791.53421763118 460.86190109694 C 806.13421763118 457.16190109694 820.33421763118 451.76190109694 833.33421763118 443.96190109694 C 839.73421763118 440.16190109694 845.83421763118 435.66190109694 851.43421763118 430.66190109694 C 852.13421763118 430.06190109694 852.83421763118 429.36190109694 853.53421763118 428.66190109694 C 853.83421763118 428.36190109694 853.73421763118 428.26190109694 853.43421763118 428.46190109694 Z"/><path fill="#aa36a5" transform="matrix(1.5177663709027627 0 0 1.5177663709027625 -515.1371580994833 -55.60810823495672)" d="M 899.33421763118 334.96190109694 C 899.13421763118 334.96190109694 899.03421763118 335.26190109694 898.93421763118 335.36190109694 C 898.63421763118 335.76190109694 898.43421763118 336.06190109694 898.13421763118 336.46190109694 C 897.63421763118 337.16190109694 897.13421763118 337.96190109694 896.53421763118 338.66190109694 C 895.43421763118 340.16190109694 894.33421763118 341.66190109694 893.13421763118 343.16190109694 C 888.53421763118 349.06190109694 883.53421763118 354.66190109694 878.03421763118 359.76190109694 C 867.43421763118 369.66190109694 855.23421763118 377.56190109694 842.03421763118 383.36190109694 C 828.13421763118 389.46190109694 813.33421763118 393.26190109694 798.33421763118 395.36190109694 C 782.93421763118 397.56190109694 767.33421763118 397.96190109694 751.73421763118 397.36190109694 C 736.13421763118 396.76190109694 720.63421763118 395.06190109694 705.23421763118 392.66190109694 C 692.03421763118 390.66190109694 678.93421763118 388.06190109694 665.93421763118 385.16190109694 C 659.03421763118 383.66190109694 652.13421763118 382.06190109694 645.13421763118 380.56190109694 C 630.53421763118 377.36190109694 615.83421763118 374.46190109694 601.03421763118 372.46190109694 C 590.63421763118 371.06190109694 580.13421763118 369.96190109694 569.63421763118 369.46190109694 C 554.13421763118 368.76190109694 538.53421763118 369.56190109694 523.33421763118 372.96190109694 C 508.63421763118 376.26190109694 494.43421763118 382.16190109694 482.13421763118 390.76190109694 C 470.43421763118 398.96190109694 460.43421763118 409.36190109694 452.83421763118 421.46190109694 C 445.13421763118 433.86190109694 439.93421763118 448.06190109694 438.23421763118 462.56190109694 C 438.23421763118 462.46190109694 438.53421763118 460.36190109694 438.53421763118 460.16190109694 C 438.53421763118 460.26190109694 438.43421763118 460.96190109694 438.23421763118 462.56190109694 C 438.23421763118 462.96190109694 438.63421763118 462.56190109694 438.63421763118 462.46190109694 C 438.73421763118 462.16190109694 438.93421763118 461.96190109694 439.03421763118 461.66190109694 C 439.33421763118 461.16190109694 439.63421763118 460.56190109694 439.93421763118 460.06190109694 C 440.53421763118 458.96190109694 441.13421763118 457.96190109694 441.73421763118 456.86190109694 C 442.93421763118 454.76190109694 444.23421763118 452.56190109694 445.53421763118 450.56190109694 C 453.63421763118 437.96190109694 463.63421763118 426.56190109694 475.83421763118 417.76190109694 C 487.73421763118 409.16190109694 501.33421763118 403.16190109694 515.63421763118 399.86190109694 C 530.63421763118 396.46190109694 546.03421763118 396.16190109694 561.33421763118 397.26190109694 C 572.83421763118 398.06190109694 584.33421763118 399.56190109694 595.73421763118 401.26190109694 C 609.93421763118 403.36190109694 624.13421763118 406.06190109694 638.23421763118 408.86190109694 C 645.03421763118 410.26190109694 651.83421763118 411.56190109694 658.73421763118 412.96190109694 C 671.73421763118 415.56190109694 684.73421763118 417.66190109694 697.83421763118 419.26190109694 C 713.13421763118 421.06190109694 728.63421763118 422.06190109694 744.03421763118 421.96190109694 C 759.43421763118 421.86190109694 774.93421763118 420.56190109694 790.13421763118 417.76190109694 C 805.33421763118 414.96190109694 820.23421763118 410.46190109694 834.23421763118 403.96190109694 C 847.53421763118 397.76190109694 859.93421763118 389.46190109694 870.53421763118 379.26190109694 C 880.63421763118 369.46190109694 889.03421763118 357.96190109694 895.03421763118 345.26190109694 C 896.53421763118 342.06190109694 897.93421763118 338.86190109694 899.13421763118 335.56190109694 C 899.43421763118 335.36190109694 899.53421763118 334.96190109694 899.33421763118 334.96190109694 Z"/><path fill="#aa36a5" transform="matrix(1.5177663709027627 0 0 1.5177663709027625 -515.1371580994833 -55.60810823495672)" d="M 438.63421763118 460.16190109694 C 438.63421763118 460.16190109694 438.63421763118 460.16190109694 438.63421763118 460.16190109694 L 438.63421763118 460.16190109694 Z"/><path fill="#00acee" transform="matrix(1.5177663709027627 0 0 1.5177663709027625 -515.1371580994833 -55.60810823495672)" d="M 459.43421763118 373.06190109694 C 459.43421763118 373.06190109694 653.93421763118 241.66190109694 848.53421763118 232.76190109694 C 848.53421763118 232.76190109694 848.53421763118 306.76190109694 780.83421763118 380.66190109694 C 780.83421763118 380.66190109694 809.23421763118 315.66190109694 813.93421763118 268.06190109694 C 813.93421763118 268.16190109694 668.93421763118 277.76190109694 459.43421763118 373.06190109694 Z"/><path fill="#00acee" transform="matrix(1.5177663709027627 0 0 1.5177663709027625 -515.1371580994833 -55.60810823495672)" d="M 756.83421763118 233.76190109694 C 725.23421763118 212.56190109694 692.63421763118 197.36190109694 692.63421763118 197.36190109694 C 692.63421763118 197.36190109694 575.23421763118 275.06190109694 518.83421763118 327.96190109694 C 670.23421763118 241.66190109694 756.83421763118 233.76190109694 756.83421763118 233.76190109694 Z"/><path id="text" fill="#231e61" transform="matrix(0.5347125157716182 0 0 0.5347125157716182 -489.8801812947627 618.901714887004)" d="M 1547.54209916122 251.99431492636 C 1541.94209916122 248.98631492636 1537.55809916122 244.84231492636 1534.39009916122 239.56231492636 C 1531.22209916122 234.28231492636 1529.63809916122 228.34631492636 1529.63809916122 221.75431492636 C 1529.63809916122 215.16231492636 1531.22209916122 209.22631492636 1534.39009916122 203.94631492636 C 1537.55809916122 198.66631492636 1541.94209916122 194.52231492636 1547.54209916122 191.51431492636 C 1553.14209916122 188.50631492636 1559.43009916122 187.00231492636 1566.40609916122 187.00231492636 C 1573.38209916122 187.00231492636 1579.65409916122 188.50631492636 1585.22209916122 191.51431492636 C 1590.79009916122 194.52231492636 1595.17409916122 198.66631492636 1598.37409916122 203.94631492636 C 1601.57409916122 209.22631492636 1603.17409916122 215.16231492636 1603.17409916122 221.75431492636 C 1603.17409916122 228.34631492636 1601.57409916122 234.28231492636 1598.37409916122 239.56231492636 C 1595.17409916122 244.84231492636 1590.79009916122 248.98631492636 1585.22209916122 251.99431492636 C 1579.65409916122 255.00231492636 1573.38209916122 256.50631492636 1566.40609916122 256.50631492636 C 1559.43009916122 256.50631492636 1553.14209916122 255.00231492636 1547.54209916122 251.99431492636 Z M 1577.15809916122 240.52231492636 C 1580.35809916122 238.69831492636 1582.87009916122 236.15431492636 1584.69409916122 232.89031492636 C 1586.51809916122 229.62631492636 1587.43009916122 225.91431492636 1587.43009916122 221.75431492636 C 1587.43009916122 217.59431492636 1586.51809916122 213.88231492636 1584.69409916122 210.61831492636 C 1582.87009916122 207.35431492636 1580.35809916122 204.81031492636 1577.15809916122 202.98631492636 C 1573.95809916122 201.16231492636 1570.37409916122 200.25031492636 1566.40609916122 200.25031492636 C 1562.43809916122 200.25031492636 1558.85409916122 201.16231492636 1555.65409916122 202.98631492636 C 1552.45409916122 204.81031492636 1549.94209916122 207.35431492636 1548.11809916122 210.61831492636 C 1546.29409916122 213.88231492636 1545.38209916122 217.59431492636 1545.38209916122 221.75431492636 C 1545.38209916122 225.91431492636 1546.29409916122 229.62631492636 1548.11809916122 232.89031492636 C 1549.94209916122 236.15431492636 1552.45409916122 238.69831492636 1555.65409916122 240.52231492636 C 1558.85409916122 242.34631492636 1562.43809916122 243.25831492636 1566.40609916122 243.25831492636 C 1570.37409916122 243.25831492636 1573.95809916122 242.34631492636 1577.15809916122 240.52231492636 Z M 1623.95809916122 252.71431492636 C 1619.57409916122 250.44231492636 1616.15009916122 247.29031492636 1613.68609916122 243.25831492636 C 1611.22209916122 239.22631492636 1609.99009916122 234.65031492636 1609.99009916122 229.53031492636 C 1609.99009916122 224.41031492636 1611.22209916122 219.83431492636 1613.68609916122 215.80231492636 C 1616.15009916122 211.77031492636 1619.57409916122 208.61831492636 1623.95809916122 206.34631492636 C 1628.34209916122 204.07431492636 1633.28609916122 202.93831492636 1638.79009916122 202.93831492636 C 1644.23009916122 202.93831492636 1648.98209916122 204.07431492636 1653.04609916122 206.34631492636 C 1657.11009916122 208.61831492636 1660.07009916122 211.86631492636 1661.92609916122 216.09031492636 L 1650.31009916122 222.33031492636 C 1647.62209916122 217.59431492636 1643.75009916122 215.22631492636 1638.69409916122 215.22631492636 C 1634.79009916122 215.22631492636 1631.55809916122 216.50631492636 1628.99809916122 219.06631492636 C 1626.43809916122 221.62631492636 1625.15809916122 225.11431492636 1625.15809916122 229.53031492636 C 1625.15809916122 233.94631492636 1626.43809916122 237.43431492636 1628.99809916122 239.99431492636 C 1631.55809916122 242.55431492636 1634.79009916122 243.83431492636 1638.69409916122 243.83431492636 C 1643.81409916122 243.83431492636 1647.68609916122 241.46631492636 1650.31009916122 236.73031492636 L 1661.92609916122 243.06631492636 C 1660.07009916122 247.16231492636 1657.11009916122 250.36231492636 1653.04609916122 252.66631492636 C 1648.98209916122 254.97031492636 1644.23009916122 256.12231492636 1638.79009916122 256.12231492636 C 1633.28609916122 256.12231492636 1628.34209916122 254.98631492636 1623.95809916122 252.71431492636 Z M 1720.19809916122 233.75431492636 L 1681.12609916122 233.75431492636 C 1681.83009916122 236.95431492636 1683.49409916122 239.48231492636 1686.11809916122 241.33831492636 C 1688.74209916122 243.19431492636 1692.00609916122 244.12231492636 1695.91009916122 244.12231492636 C 1698.59809916122 244.12231492636 1700.98209916122 243.72231492636 1703.06209916122 242.92231492636 C 1705.14209916122 242.12231492636 1707.07809916122 240.85831492636 1708.87009916122 239.13031492636 L 1716.83809916122 247.77031492636 C 1711.97409916122 253.33831492636 1704.87009916122 256.12231492636 1695.52609916122 256.12231492636 C 1689.70209916122 256.12231492636 1684.55009916122 254.98631492636 1680.07009916122 252.71431492636 C 1675.59009916122 250.44231492636 1672.13409916122 247.29031492636 1669.70209916122 243.25831492636 C 1667.27009916122 239.22631492636 1666.05409916122 234.65031492636 1666.05409916122 229.53031492636 C 1666.05409916122 224.47431492636 1667.25409916122 219.91431492636 1669.65409916122 215.85031492636 C 1672.05409916122 211.78631492636 1675.35009916122 208.61831492636 1679.54209916122 206.34631492636 C 1683.73409916122 204.07431492636 1688.42209916122 202.93831492636 1693.60609916122 202.93831492636 C 1698.66209916122 202.93831492636 1703.23809916122 204.02631492636 1707.33409916122 206.20231492636 C 1711.43009916122 208.37831492636 1714.64609916122 211.49831492636 1716.98209916122 215.56231492636 C 1719.31809916122 219.62631492636 1720.48609916122 224.34631492636 1720.48609916122 229.72231492636 C 1720.48609916122 229.91431492636 1720.39009916122 231.25831492636 1720.19809916122 233.75431492636 Z M 1685.15809916122 217.14631492636 C 1682.85409916122 219.06631492636 1681.44609916122 221.69031492636 1680.93409916122 225.01831492636 L 1706.37409916122 225.01831492636 C 1705.86209916122 221.75431492636 1704.45409916122 219.14631492636 1702.15009916122 217.19431492636 C 1699.84609916122 215.24231492636 1697.03009916122 214.26631492636 1693.70209916122 214.26631492636 C 1690.31009916122 214.26631492636 1687.46209916122 215.22631492636 1685.15809916122 217.14631492636 Z M 1768.29409916122 208.65031492636 C 1772.58209916122 212.45831492636 1774.72609916122 218.20231492636 1774.72609916122 225.88231492636 L 1774.72609916122 255.35431492636 L 1760.71009916122 255.35431492636 L 1760.71009916122 248.92231492636 C 1757.89409916122 253.72231492636 1752.64609916122 256.12231492636 1744.96609916122 256.12231492636 C 1740.99809916122 256.12231492636 1737.55809916122 255.45031492636 1734.64609916122 254.10631492636 C 1731.73409916122 252.76231492636 1729.51009916122 250.90631492636 1727.97409916122 248.53831492636 C 1726.43809916122 246.17031492636 1725.67009916122 243.48231492636 1725.67009916122 240.47431492636 C 1725.67009916122 235.67431492636 1727.47809916122 231.89831492636 1731.09409916122 229.14631492636 C 1734.71009916122 226.39431492636 1740.29409916122 225.01831492636 1747.84609916122 225.01831492636 L 1759.75009916122 225.01831492636 C 1759.75009916122 221.75431492636 1758.75809916122 219.24231492636 1756.77409916122 217.48231492636 C 1754.79009916122 215.72231492636 1751.81409916122 214.84231492636 1747.84609916122 214.84231492636 C 1745.09409916122 214.84231492636 1742.39009916122 215.27431492636 1739.73409916122 216.13831492636 C 1737.07809916122 217.00231492636 1734.82209916122 218.17031492636 1732.96609916122 219.64231492636 L 1727.59009916122 209.17831492636 C 1730.40609916122 207.19431492636 1733.78209916122 205.65831492636 1737.71809916122 204.57031492636 C 1741.65409916122 203.48231492636 1745.70209916122 202.93831492636 1749.86209916122 202.93831492636 C 1757.86209916122 202.93831492636 1764.00609916122 204.84231492636 1768.29409916122 208.65031492636 Z M 1755.52609916122 244.26631492636 C 1757.51009916122 243.08231492636 1758.91809916122 241.33831492636 1759.75009916122 239.03431492636 L 1759.75009916122 233.75431492636 L 1749.47809916122 233.75431492636 C 1743.33409916122 233.75431492636 1740.26209916122 235.77031492636 1740.26209916122 239.80231492636 C 1740.26209916122 241.72231492636 1741.01409916122 243.24231492636 1742.51809916122 244.36231492636 C 1744.02209916122 245.48231492636 1746.08609916122 246.04231492636 1748.71009916122 246.04231492636 C 1751.27009916122 246.04231492636 1753.54209916122 245.45031492636 1755.52609916122 244.26631492636 Z M 1835.15809916122 208.69831492636 C 1839.09409916122 212.53831492636 1841.06209916122 218.23431492636 1841.06209916122 225.78631492636 L 1841.06209916122 255.35431492636 L 1826.08609916122 255.35431492636 L 1826.08609916122 228.09031492636 C 1826.08609916122 223.99431492636 1825.19009916122 220.93831492636 1823.39809916122 218.92231492636 C 1821.60609916122 216.90631492636 1819.01409916122 215.89831492636 1815.62209916122 215.89831492636 C 1811.84609916122 215.89831492636 1808.83809916122 217.06631492636 1806.59809916122 219.40231492636 C 1804.35809916122 221.73831492636 1803.23809916122 225.21031492636 1803.23809916122 229.81831492636 L 1803.23809916122 255.35431492636 L 1788.26209916122 255.35431492636 L 1788.26209916122 203.70631492636 L 1802.56609916122 203.70631492636 L 1802.56609916122 209.75431492636 C 1804.55009916122 207.57831492636 1807.01409916122 205.89831492636 1809.95809916122 204.71431492636 C 1812.90209916122 203.53031492636 1816.13409916122 202.93831492636 1819.65409916122 202.93831492636 C 1826.05409916122 202.93831492636 1831.22209916122 204.85831492636 1835.15809916122 208.69831492636 Z M 1927.41409916122 191.13031492636 C 1931.79809916122 193.11431492636 1935.17409916122 195.93031492636 1937.54209916122 199.57831492636 C 1939.91009916122 203.22631492636 1941.09409916122 207.54631492636 1941.09409916122 212.53831492636 C 1941.09409916122 217.46631492636 1939.91009916122 221.77031492636 1937.54209916122 225.45031492636 C 1935.17409916122 229.13031492636 1931.79809916122 231.94631492636 1927.41409916122 233.89831492636 C 1923.03009916122 235.85031492636 1917.86209916122 236.82631492636 1911.91009916122 236.82631492636 L 1898.37409916122 236.82631492636 L 1898.37409916122 255.35431492636 L 1882.82209916122 255.35431492636 L 1882.82209916122 188.15431492636 L 1911.91009916122 188.15431492636 C 1917.86209916122 188.15431492636 1923.03009916122 189.14631492636 1927.41409916122 191.13031492636 Z M 1921.70209916122 221.13031492636 C 1924.13409916122 219.11431492636 1925.35009916122 216.25031492636 1925.35009916122 212.53831492636 C 1925.35009916122 208.76231492636 1924.13409916122 205.86631492636 1921.70209916122 203.85031492636 C 1919.27009916122 201.83431492636 1915.71809916122 200.82631492636 1911.04609916122 200.82631492636 L 1898.37409916122 200.82631492636 L 1898.37409916122 224.15431492636 L 1911.04609916122 224.15431492636 C 1915.71809916122 224.15431492636 1919.27009916122 223.14631492636 1921.70209916122 221.13031492636 Z M 1972.63009916122 204.85831492636 C 1975.67009916122 203.57831492636 1979.17409916122 202.93831492636 1983.14209916122 202.93831492636 L 1983.14209916122 216.76231492636 C 1981.47809916122 216.63431492636 1980.35809916122 216.57031492636 1979.78209916122 216.57031492636 C 1975.49409916122 216.57031492636 1972.13409916122 217.77031492636 1969.70209916122 220.17031492636 C 1967.27009916122 222.57031492636 1966.05409916122 226.17031492636 1966.05409916122 230.97031492636 L 1966.05409916122 255.35431492636 L 1951.07809916122 255.35431492636 L 1951.07809916122 203.70631492636 L 1965.38209916122 203.70631492636 L 1965.38209916122 210.52231492636 C 1967.17409916122 208.02631492636 1969.59009916122 206.13831492636 1972.63009916122 204.85831492636 Z M 1992.07009916122 203.70631492636 L 2007.04609916122 203.70631492636 L 2007.04609916122 255.35431492636 L 1992.07009916122 255.35431492636 L 1992.07009916122 203.70631492636 Z M 1992.83809916122 194.10631492636 C 1991.11009916122 192.50631492636 1990.24609916122 190.52231492636 1990.24609916122 188.15431492636 C 1990.24609916122 185.78631492636 1991.11009916122 183.80231492636 1992.83809916122 182.20231492636 C 1994.56609916122 180.60231492636 1996.80609916122 179.80231492636 1999.55809916122 179.80231492636 C 2002.31009916122 179.80231492636 2004.55009916122 180.57031492636 2006.27809916122 182.10631492636 C 2008.00609916122 183.64231492636 2008.87009916122 185.56231492636 2008.87009916122 187.86631492636 C 2008.87009916122 190.36231492636 2008.00609916122 192.42631492636 2006.27809916122 194.05831492636 C 2004.55009916122 195.69031492636 2002.31009916122 196.50631492636 1999.55809916122 196.50631492636 C 1996.80609916122 196.50631492636 1994.56609916122 195.70631492636 1992.83809916122 194.10631492636 Z M 2102.51809916122 208.65031492636 C 2106.32609916122 212.45831492636 2108.23009916122 218.17031492636 2108.23009916122 225.78631492636 L 2108.23009916122 255.35431492636 L 2093.25409916122 255.35431492636 L 2093.25409916122 228.09031492636 C 2093.25409916122 223.99431492636 2092.40609916122 220.93831492636 2090.71009916122 218.92231492636 C 2089.01409916122 216.90631492636 2086.59809916122 215.89831492636 2083.46209916122 215.89831492636 C 2079.94209916122 215.89831492636 2077.15809916122 217.03431492636 2075.11009916122 219.30631492636 C 2073.06209916122 221.57831492636 2072.03809916122 224.95431492636 2072.03809916122 229.43431492636 L 2072.03809916122 255.35431492636 L 2057.06209916122 255.35431492636 L 2057.06209916122 228.09031492636 C 2057.06209916122 219.96231492636 2053.79809916122 215.89831492636 2047.27009916122 215.89831492636 C 2043.81409916122 215.89831492636 2041.06209916122 217.03431492636 2039.01409916122 219.30631492636 C 2036.96609916122 221.57831492636 2035.94209916122 224.95431492636 2035.94209916122 229.43431492636 L 2035.94209916122 255.35431492636 L 2020.96609916122 255.35431492636 L 2020.96609916122 203.70631492636 L 2035.27009916122 203.70631492636 L 2035.27009916122 209.65831492636 C 2037.19009916122 207.48231492636 2039.54209916122 205.81831492636 2042.32609916122 204.66631492636 C 2045.11009916122 203.51431492636 2048.16609916122 202.93831492636 2051.49409916122 202.93831492636 C 2055.14209916122 202.93831492636 2058.43809916122 203.65831492636 2061.38209916122 205.09831492636 C 2064.32609916122 206.53831492636 2066.69409916122 208.63431492636 2068.48609916122 211.38631492636 C 2070.59809916122 208.69831492636 2073.27009916122 206.61831492636 2076.50209916122 205.14631492636 C 2079.73409916122 203.67431492636 2083.27009916122 202.93831492636 2087.11009916122 202.93831492636 C 2093.57409916122 202.93831492636 2098.71009916122 204.84231492636 2102.51809916122 208.65031492636 Z M 2172.55009916122 233.75431492636 L 2133.47809916122 233.75431492636 C 2134.18209916122 236.95431492636 2135.84609916122 239.48231492636 2138.47009916122 241.33831492636 C 2141.09409916122 243.19431492636 2144.35809916122 244.12231492636 2148.26209916122 244.12231492636 C 2150.95009916122 244.12231492636 2153.33409916122 243.72231492636 2155.41409916122 242.92231492636 C 2157.49409916122 242.12231492636 2159.43009916122 240.85831492636 2161.22209916122 239.13031492636 L 2169.19009916122 247.77031492636 C 2164.32609916122 253.33831492636 2157.22209916122 256.12231492636 2147.87809916122 256.12231492636 C 2142.05409916122 256.12231492636 2136.90209916122 254.98631492636 2132.42209916122 252.71431492636 C 2127.94209916122 250.44231492636 2124.48609916122 247.29031492636 2122.05409916122 243.25831492636 C 2119.62209916122 239.22631492636 2118.40609916122 234.65031492636 2118.40609916122 229.53031492636 C 2118.40609916122 224.47431492636 2119.60609916122 219.91431492636 2122.00609916122 215.85031492636 C 2124.40609916122 211.78631492636 2127.70209916122 208.61831492636 2131.89409916122 206.34631492636 C 2136.08609916122 204.07431492636 2140.77409916122 202.93831492636 2145.95809916122 202.93831492636 C 2151.01409916122 202.93831492636 2155.59009916122 204.02631492636 2159.68609916122 206.20231492636 C 2163.78209916122 208.37831492636 2166.99809916122 211.49831492636 2169.33409916122 215.56231492636 C 2171.67009916122 219.62631492636 2172.83809916122 224.34631492636 2172.83809916122 229.72231492636 C 2172.83809916122 229.91431492636 2172.74209916122 231.25831492636 2172.55009916122 233.75431492636 Z M 2137.51009916122 217.14631492636 C 2135.20609916122 219.06631492636 2133.79809916122 221.69031492636 2133.28609916122 225.01831492636 L 2158.72609916122 225.01831492636 C 2158.21409916122 221.75431492636 2156.80609916122 219.14631492636 2154.50209916122 217.19431492636 C 2152.19809916122 215.24231492636 2149.38209916122 214.26631492636 2146.05409916122 214.26631492636 C 2142.66209916122 214.26631492636 2139.81409916122 215.22631492636 2137.51009916122 217.14631492636 Z"/></svg>